<?xml version="1.0" standalone="no"?>
<!DOCTYPE svg PUBLIC "-//W3C//DTD SVG 20010904//EN"
 "http://www.w3.org/TR/2001/REC-SVG-20010904/DTD/svg10.dtd">
<svg version="1.0" xmlns="http://www.w3.org/2000/svg"
 width="1280.000000pt" height="1223.000000pt" viewBox="0 0 1280.000000 1223.000000"
 preserveAspectRatio="xMidYMid meet">
<metadata>
Created by potrace 1.15, written by Peter Selinger 2001-2017
</metadata>
<g transform="translate(0.000000,1223.000000) scale(0.100000,-0.100000)"
fill="#000000" stroke="none">
<path d="M8209 12216 c-106 -38 -191 -132 -279 -311 -149 -302 -271 -805 -350
-1444 -11 -91 -20 -171 -20 -179 0 -8 48 45 107 119 412 518 714 1002 819
1314 46 136 58 285 30 357 -47 117 -192 185 -307 144z"/>
<path d="M4293 11455 c-69 -19 -164 -67 -207 -106 -46 -39 -86 -122 -93 -191
-11 -109 57 -295 180 -494 66 -107 216 -321 423 -604 414 -565 564 -861 564
-1114 0 -135 -48 -243 -150 -340 -117 -110 -210 -132 -325 -76 -75 37 -213
181 -367 385 -172 228 -246 313 -320 371 -136 107 -257 110 -372 12 -51 -44
-96 -123 -96 -169 0 -91 66 -198 240 -384 192 -205 260 -313 260 -411 0 -69
-21 -116 -82 -180 -65 -69 -114 -88 -210 -82 -99 6 -193 52 -428 208 -205 135
-249 160 -329 184 -110 33 -174 17 -252 -63 -124 -127 -127 -259 -8 -395 56
-64 139 -127 354 -271 294 -198 379 -272 430 -381 33 -69 34 -158 4 -221 -53
-109 -232 -146 -521 -108 -169 22 -363 63 -841 179 -402 98 -569 135 -757 167
-41 8 -147 14 -235 14 -142 0 -166 -3 -215 -22 -145 -59 -189 -190 -93 -279
120 -112 401 -166 1233 -239 459 -40 545 -48 752 -76 371 -49 570 -113 651
-208 33 -39 35 -79 9 -172 -62 -222 -242 -342 -566 -378 -203 -23 -455 -8
-946 55 -594 76 -604 77 -845 78 -187 1 -243 -3 -300 -17 -221 -55 -325 -175
-325 -376 0 -112 20 -171 75 -227 147 -147 429 -124 1230 99 553 154 802 209
1028 226 446 33 656 -117 660 -474 3 -251 -120 -358 -623 -545 -246 -91 -376
-157 -444 -224 -94 -91 -110 -203 -46 -332 35 -72 68 -97 125 -97 82 0 147 48
419 305 239 227 349 294 467 286 71 -5 129 -45 216 -148 190 -226 175 -393
-49 -547 -82 -57 -235 -135 -433 -223 -396 -175 -506 -258 -522 -390 -8 -67
29 -142 108 -226 145 -151 300 -174 462 -71 111 72 209 185 435 503 208 295
269 362 366 405 67 29 108 19 171 -45 132 -133 200 -380 162 -582 -41 -216
-164 -417 -411 -672 -160 -164 -270 -262 -641 -568 -305 -251 -514 -445 -596
-554 -28 -36 -66 -99 -87 -140 -32 -67 -36 -83 -37 -155 0 -103 25 -157 115
-245 119 -117 280 -193 415 -194 71 -1 88 3 147 32 102 50 188 152 277 330 55
110 99 226 180 477 180 553 226 689 278 815 138 342 294 552 477 640 184 89
373 77 624 -41 161 -75 211 -140 219 -288 6 -110 -15 -213 -97 -466 -120 -371
-130 -500 -44 -595 50 -55 122 -84 214 -84 64 -1 82 3 121 26 108 64 157 176
234 538 72 333 111 437 198 517 68 62 145 77 244 48 126 -37 188 -166 200
-411 9 -196 -12 -400 -112 -1053 -79 -517 -100 -791 -76 -985 34 -268 141
-399 336 -413 180 -13 347 64 418 195 46 85 61 162 61 312 -1 221 -43 424
-200 965 -42 143 -96 332 -120 420 -193 705 -143 1008 176 1066 56 10 74 9
122 -5 146 -42 222 -150 382 -545 139 -341 224 -441 375 -441 43 0 77 7 118
26 134 59 178 155 138 306 -16 63 -50 136 -182 388 -106 202 -143 303 -143
387 1 106 49 174 169 236 161 85 293 66 434 -63 123 -113 217 -270 443 -745
216 -455 293 -586 415 -706 144 -142 300 -158 475 -48 260 165 249 389 -34
677 -104 106 -222 207 -482 412 -295 233 -425 344 -536 455 -270 273 -318 486
-146 647 132 123 343 123 550 0 160 -95 259 -181 638 -553 364 -356 506 -464
679 -514 69 -20 188 -16 246 9 72 31 95 153 48 256 -67 145 -233 274 -729 565
-453 265 -672 429 -759 564 -87 136 -75 250 42 377 37 41 56 74 74 127 47 138
141 255 238 297 142 61 348 37 604 -71 132 -56 305 -147 641 -340 453 -259
628 -336 787 -346 113 -8 165 8 224 67 86 86 112 215 59 290 -13 18 -50 50
-83 71 -131 85 -315 137 -892 255 -783 159 -1043 241 -1193 378 -102 94 -118
181 -55 307 50 99 143 192 243 241 188 92 380 104 835 48 291 -35 414 -43 506
-32 204 25 297 103 339 281 17 71 7 252 -20 386 -47 234 -133 314 -325 302
-139 -8 -267 -59 -693 -275 -534 -269 -656 -315 -847 -316 -88 0 -107 3 -157
26 -31 14 -75 45 -97 69 -54 55 -109 170 -128 268 -14 71 -14 82 1 136 37 126
172 210 541 340 409 143 520 227 519 390 0 58 -6 82 -32 137 -39 79 -86 122
-154 138 -78 19 -144 2 -367 -96 -213 -95 -288 -117 -396 -117 -104 -1 -154
17 -243 85 -141 109 -135 234 17 355 94 74 202 134 586 325 372 185 532 274
636 354 87 66 165 151 201 218 30 55 33 69 33 146 0 74 -4 93 -29 144 -39 80
-149 194 -223 232 -47 23 -74 30 -139 32 -138 6 -254 -45 -428 -189 -151 -125
-273 -262 -656 -734 -202 -248 -392 -440 -479 -483 -99 -49 -147 -40 -214 38
-65 77 -73 178 -23 319 35 100 99 217 252 461 246 393 305 546 260 673 -22 61
-62 103 -127 136 -81 40 -144 42 -219 4 -114 -57 -215 -189 -430 -563 -202
-350 -285 -456 -411 -522 -91 -47 -221 -17 -280 65 -42 58 -52 107 -46 227 5
107 11 134 138 610 47 176 63 352 39 426 -29 87 -86 140 -179 168 -96 28 -160
16 -225 -44 -77 -71 -117 -168 -182 -449 -50 -217 -79 -312 -118 -389 -60
-118 -136 -172 -242 -172 -74 0 -124 16 -169 52 -96 80 -114 215 -73 553 11
99 22 241 22 315 1 126 -1 139 -26 192 -36 78 -87 111 -177 116 -90 5 -147
-12 -192 -57 -81 -81 -79 -207 10 -566 69 -283 86 -388 71 -465 -14 -75 -38
-110 -95 -140 -46 -23 -59 -25 -180 -25 -111 1 -138 4 -187 23 -215 86 -364
319 -468 734 -37 144 -54 232 -120 603 -85 481 -123 632 -200 791 -56 116
-116 188 -191 229 -44 24 -68 29 -134 32 -49 2 -100 -3 -132 -12z"/>
<path d="M10530 8025 c-61 -19 -123 -74 -154 -137 -92 -185 57 -404 264 -385
73 6 127 35 179 93 95 108 91 249 -9 358 -71 76 -176 103 -280 71z"/>
<path d="M223 7629 c-125 -23 -223 -139 -223 -264 0 -100 70 -205 161 -245
144 -61 314 12 363 157 66 192 -103 389 -301 352z"/>
<path d="M11560 5739 c-271 -17 -840 -85 -840 -100 0 -16 545 -237 805 -325
415 -142 700 -200 929 -192 178 7 269 49 323 151 26 49 24 170 -4 223 -62 116
-222 192 -485 229 -138 20 -526 27 -728 14z"/>
<path d="M1735 3805 c-649 -84 -1102 -193 -1390 -334 -138 -68 -226 -135 -269
-205 -83 -134 -10 -323 141 -367 229 -66 657 114 1253 526 134 93 412 302 505
379 l30 25 -45 0 c-25 -1 -126 -11 -225 -24z"/>
</g>
</svg>
